<svg width="14" height="16" viewBox="0 0 14 16" fill="none" xmlns="http://www.w3.org/2000/svg">
<path d="M8.15333 14.0002C8.03613 14.2022 7.86789 14.3699 7.66548 14.4865C7.46307 14.6031 7.23359 14.6645 7 14.6645C6.76641 14.6645 6.53693 14.6031 6.33452 14.4865C6.1321 14.3699 5.96387 14.2022 5.84667 14.0002M11 5.3335C11 4.27263 10.5786 3.25521 9.82843 2.50507C9.07828 1.75492 8.06087 1.3335 7 1.3335C5.93913 1.3335 4.92172 1.75492 4.17157 2.50507C3.42143 3.25521 3 4.27263 3 5.3335C3 10.0002 1 11.3335 1 11.3335H13C13 11.3335 11 10.0002 11 5.3335Z" stroke="#1E1E1E" stroke-width="1.6" stroke-linecap="round" stroke-linejoin="round"/>
</svg>
