<svg width="12" height="16" viewBox="0 0 12 16" fill="none" xmlns="http://www.w3.org/2000/svg">
<path d="M1.6 0H9.6C10.0243 0 10.4313 0.168571 10.7314 0.468629C11.0314 0.768687 11.2 1.17565 11.2 1.6V14.4C11.2 14.8243 11.0314 15.2313 10.7314 15.5314C10.4313 15.8314 10.0243 16 9.6 16H1.6C1.17565 16 0.768687 15.8314 0.468629 15.5314C0.168571 15.2313 0 14.8243 0 14.4V1.6C0 1.17565 0.168571 0.768687 0.468629 0.468629C0.768687 0.168571 1.17565 0 1.6 0ZM1.6 1.6V4.8H9.6V1.6H1.6ZM1.6 6.4V8H3.2V6.4H1.6ZM4.8 6.4V8H6.4V6.4H4.8ZM8 6.4V8H9.6V6.4H8ZM1.6 9.6V11.2H3.2V9.6H1.6ZM4.8 9.6V11.2H6.4V9.6H4.8ZM8 9.6V11.2H9.6V9.6H8ZM1.6 12.8V14.4H3.2V12.8H1.6ZM4.8 12.8V14.4H6.4V12.8H4.8ZM8 12.8V14.4H9.6V12.8H8Z" fill="#FFD700"/>
</svg>
