<svg width="20" height="20" viewBox="0 0 20 20" fill="none" xmlns="http://www.w3.org/2000/svg">
<path d="M17 14.5C15.75 14.5 14.55 14.3 13.43 13.93C13.08 13.82 12.69 13.9 12.41 14.18L10.21 16.38C7.38 14.94 5.06 12.62 3.62 9.79L5.82 7.59C6.1 7.31 6.18 6.92 6.07 6.57C5.7 5.45 5.5 4.25 5.5 3C5.5 2.73478 5.39464 2.48043 5.20711 2.29289C5.01957 2.10536 4.76522 2 4.5 2H1C0.734784 2 0.48043 2.10536 0.292893 2.29289C0.105357 2.48043 0 2.73478 0 3C0 7.50868 1.79107 11.8327 4.97918 15.0208C8.1673 18.2089 12.4913 20 17 20C17.2652 20 17.5196 19.8946 17.7071 19.7071C17.8946 19.5196 18 19.2652 18 19V15.5C18 15.2348 17.8946 14.9804 17.7071 14.7929C17.5196 14.6054 17.2652 14.5 17 14.5ZM15 10L20 5L15 0V3H11V7H15V10Z" fill="black"/>
</svg>
