<svg width="13" height="15" viewBox="0 0 13 15" fill="none" xmlns="http://www.w3.org/2000/svg">
<path d="M11.3333 13.3333H4V4H11.3333M11.3333 2.66667H4C3.64638 2.66667 3.30724 2.80714 3.05719 3.05719C2.80714 3.30724 2.66667 3.64638 2.66667 4V13.3333C2.66667 13.687 2.80714 14.0261 3.05719 14.2761C3.30724 14.5262 3.64638 14.6667 4 14.6667H11.3333C11.687 14.6667 12.0261 14.5262 12.2761 14.2761C12.5262 14.0261 12.6667 13.687 12.6667 13.3333V4C12.6667 3.64638 12.5262 3.30724 12.2761 3.05719C12.0261 2.80714 11.687 2.66667 11.3333 2.66667ZM9.33333 0H1.33333C0.979711 0 0.640573 0.140476 0.390524 0.390524C0.140476 0.640573 0 0.979711 0 1.33333V10.6667H1.33333V1.33333H9.33333V0Z" fill="#666666"/>
</svg>
