<svg width="20" height="20" viewBox="0 0 20 20" fill="none" xmlns="http://www.w3.org/2000/svg">
<path d="M10.2752 13.5C9.34697 13.5 8.45673 13.1313 7.80036 12.4749C7.14398 11.8185 6.77523 10.9283 6.77523 10C6.77523 9.07174 7.14398 8.1815 7.80036 7.52513C8.45673 6.86875 9.34697 6.5 10.2752 6.5C11.2035 6.5 12.0937 6.86875 12.7501 7.52513C13.4065 8.1815 13.7752 9.07174 13.7752 10C13.7752 10.9283 13.4065 11.8185 12.7501 12.4749C12.0937 13.1313 11.2035 13.5 10.2752 13.5ZM17.7052 10.97C17.7452 10.65 17.7752 10.33 17.7752 10C17.7752 9.67 17.7452 9.34 17.7052 9L19.8152 7.37C20.0052 7.22 20.0552 6.95 19.9352 6.73L17.9352 3.27C17.8152 3.05 17.5452 2.96 17.3252 3.05L14.8352 4.05C14.3152 3.66 13.7752 3.32 13.1452 3.07L12.7752 0.42C12.7352 0.18 12.5252 0 12.2752 0H8.27523C8.02523 0 7.81523 0.18 7.77523 0.42L7.40523 3.07C6.77523 3.32 6.23523 3.66 5.71523 4.05L3.22523 3.05C3.00523 2.96 2.73523 3.05 2.61523 3.27L0.61523 6.73C0.48523 6.95 0.54523 7.22 0.73523 7.37L2.84523 9C2.80523 9.34 2.77523 9.67 2.77523 10C2.77523 10.33 2.80523 10.65 2.84523 10.97L0.73523 12.63C0.54523 12.78 0.48523 13.05 0.61523 13.27L2.61523 16.73C2.73523 16.95 3.00523 17.03 3.22523 16.95L5.71523 15.94C6.23523 16.34 6.77523 16.68 7.40523 16.93L7.77523 19.58C7.81523 19.82 8.02523 20 8.27523 20H12.2752C12.5252 20 12.7352 19.82 12.7752 19.58L13.1452 16.93C13.7752 16.67 14.3152 16.34 14.8352 15.94L17.3252 16.95C17.5452 17.03 17.8152 16.95 17.9352 16.73L19.9352 13.27C20.0552 13.05 20.0052 12.78 19.8152 12.63L17.7052 10.97Z" fill="black"/>
</svg>
