<svg width="28" height="24" viewBox="0 0 28 24" fill="none" xmlns="http://www.w3.org/2000/svg">
<path d="M12.4401 21.9038L12.4393 21.9032C9.06165 18.8403 6.29825 16.3306 4.37343 13.9757C2.4541 11.6275 1.4209 9.49448 1.4209 7.19346C1.4209 3.42878 4.36157 0.5 8.11436 0.5C10.239 0.5 12.2864 1.49163 13.6205 3.04608L13.9999 3.48815L14.3793 3.04608C15.7135 1.49163 17.7609 0.5 19.8855 0.5C23.6383 0.5 26.5789 3.42878 26.5789 7.19346C26.5789 9.49448 25.5457 11.6275 23.6264 13.9757C21.7016 16.3306 18.9382 18.8403 15.5605 21.9032L15.5598 21.9038L13.9999 23.3238L12.4401 21.9038Z" stroke="#CCCCCC"/>
</svg>
