<svg width="14" height="15" viewBox="0 0 14 15" fill="none" xmlns="http://www.w3.org/2000/svg">
<path d="M7.28 13.1C7.14 12.68 7 12.19 7 11.7C7 10.65 7.42 9.67 8.05 8.9H7V7.5H8.4V8.55C8.82 8.2 9.31 7.92 9.8 7.71V0.5H0V13.1H4.2V10.65H5.6V13.1H7.28ZM7 1.9H8.4V3.3H7V1.9ZM7 4.7H8.4V6.1H7V4.7ZM2.8 11.7H1.4V10.3H2.8V11.7ZM2.8 8.9H1.4V7.5H2.8V8.9ZM2.8 6.1H1.4V4.7H2.8V6.1ZM2.8 3.3H1.4V1.9H2.8V3.3ZM4.2 1.9H5.6V3.3H4.2V1.9ZM4.2 4.7H5.6V6.1H4.2V4.7ZM4.2 8.9V7.5H5.6V8.9H4.2ZM11.9 8.9V11H14V12.4H11.9V14.5H10.5V12.4H8.4V11H10.5V8.9H11.9Z" fill="#333333"/>
</svg>
