<svg width="21" height="20" viewBox="0 0 21 20" fill="none" xmlns="http://www.w3.org/2000/svg">
<path d="M15.0004 0H5.00035C3.89035 0 3.00035 0.89 3.00035 2V7.82C3.60035 7.24 4.28035 6.8 5.00035 6.5V2H12.0004V7.82C12.0304 7.85 12.0704 7.87 12.1004 7.9C12.4404 8.24 12.7304 8.61 12.9704 9H19.0004V16H12.9704C12.7304 16.39 12.4404 16.76 12.1004 17.1C11.7404 17.45 11.3504 17.74 10.9404 18H19.0004C20.1104 18 21.0004 17.11 21.0004 16V6L15.0004 0ZM14.0004 7V1.5L19.5004 7H14.0004ZM7.50035 8C5.00035 8 3.00035 10 3.00035 12.5C3.00035 13.38 3.25035 14.21 3.69035 14.9L0.610352 18L2.00035 19.39L5.12035 16.32C5.81035 16.75 6.63035 17 7.50035 17C10.0004 17 12.0004 15 12.0004 12.5C12.0004 10 10.0004 8 7.50035 8ZM7.50035 15C6.12035 15 5.00035 13.88 5.00035 12.5C5.00035 11.12 6.12035 10 7.50035 10C8.88035 10 10.0004 11.12 10.0004 12.5C10.0004 13.88 8.88035 15 7.50035 15Z" fill="black"/>
</svg>
