<svg width="24" height="24" viewBox="0 0 24 24" fill="none" xmlns="http://www.w3.org/2000/svg">
<rect width="24" height="24" rx="12" fill="#666666"/>
<path d="M10.6051 14.6364V14.5767C10.6117 13.9437 10.678 13.4399 10.804 13.0653C10.9299 12.6908 11.1089 12.3875 11.3409 12.1555C11.5729 11.9235 11.8513 11.7098 12.1761 11.5142C12.3717 11.3949 12.5473 11.254 12.7031 11.0916C12.8589 10.9259 12.9815 10.7353 13.071 10.5199C13.1638 10.3045 13.2102 10.0658 13.2102 9.80398C13.2102 9.47917 13.134 9.19744 12.9815 8.95881C12.8291 8.72017 12.6252 8.53622 12.37 8.40696C12.1148 8.2777 11.8314 8.21307 11.5199 8.21307C11.2481 8.21307 10.9863 8.26941 10.7344 8.3821C10.4825 8.49479 10.272 8.67211 10.103 8.91406C9.93395 9.15601 9.83617 9.47254 9.80966 9.86364H8.55682C8.58333 9.30019 8.72917 8.81794 8.99432 8.4169C9.26278 8.01586 9.61577 7.70928 10.0533 7.49716C10.4941 7.28504 10.983 7.17898 11.5199 7.17898C12.1032 7.17898 12.6103 7.29498 13.0412 7.52699C13.4754 7.759 13.8101 8.07718 14.0455 8.48153C14.2841 8.88589 14.4034 9.34659 14.4034 9.86364C14.4034 10.2282 14.3471 10.558 14.2344 10.853C14.125 11.148 13.9659 11.4115 13.7571 11.6435C13.5516 11.8755 13.303 12.081 13.0114 12.2599C12.7197 12.4422 12.486 12.6345 12.3104 12.8366C12.1347 13.0355 12.0071 13.2725 11.9276 13.5476C11.848 13.8227 11.8049 14.1657 11.7983 14.5767V14.6364H10.6051ZM11.2415 17.5795C10.9962 17.5795 10.7857 17.4917 10.6101 17.3161C10.4344 17.1404 10.3466 16.9299 10.3466 16.6847C10.3466 16.4394 10.4344 16.2289 10.6101 16.0533C10.7857 15.8776 10.9962 15.7898 11.2415 15.7898C11.4867 15.7898 11.6972 15.8776 11.8729 16.0533C12.0485 16.2289 12.1364 16.4394 12.1364 16.6847C12.1364 16.8471 12.0949 16.9962 12.0121 17.1321C11.9325 17.268 11.8248 17.3774 11.6889 17.4602C11.5563 17.5398 11.4072 17.5795 11.2415 17.5795Z" fill="white"/>
</svg>
