<svg width="33" height="28" viewBox="0 0 33 28" fill="none" xmlns="http://www.w3.org/2000/svg">
<rect x="0.666992" y="10" width="32" height="18" fill="#FFD700"/>
<rect x="0.666992" y="2" width="32" height="8" fill="#DC143C"/>
<rect x="3.66699" width="4" height="8" fill="#D9D9D9"/>
<rect x="10.667" width="4" height="8" fill="#D9D9D9"/>
<rect x="17.667" width="4" height="8" fill="#D9D9D9"/>
<rect x="24.667" width="4" height="8" fill="#D9D9D9"/>
<path d="M24.667 25.3131H16.1508L16.0909 25.1933C16.0577 25.1001 16.041 24.6509 16.041 23.8455C16.041 22.8937 16.69 21.912 17.9879 20.9003C19.0661 20.0151 19.8349 19.2796 20.2941 18.6939C20.7534 18.1082 20.983 17.5324 20.983 16.9667C20.983 16.6405 20.9098 16.331 20.7634 16.0382C20.5038 15.5124 20.1177 15.2495 19.6052 15.2495C19.1726 15.2495 18.8065 15.296 18.507 15.3892L18.0278 17.4459L16.2107 17.4359L16.061 15.0897C16.7865 13.9915 18.1742 13.4424 20.2242 13.4424C20.6901 13.4424 21.1228 13.4757 21.5221 13.5422C21.9215 13.6088 22.3042 13.7253 22.6703 13.8917C23.043 14.0581 23.3592 14.2677 23.6187 14.5206C23.8783 14.7736 24.0846 15.0997 24.2377 15.499C24.3908 15.8917 24.4674 16.3443 24.4674 16.8568C24.4674 17.2296 24.4075 17.5857 24.2876 17.9251C24.1745 18.2579 24.0181 18.5541 23.8184 18.8137C23.6254 19.0666 23.3924 19.3195 23.1195 19.5724C22.8466 19.8254 22.5604 20.0517 22.2609 20.2513C21.9681 20.451 21.6519 20.664 21.3125 20.8903C20.9797 21.1166 20.6602 21.3329 20.354 21.5393C20.0545 21.7389 19.7517 21.9686 19.4455 22.2281C19.146 22.4877 18.8897 22.7473 18.6767 23.0069L24.667 22.5576V25.3131Z" fill="#DC143C"/>
<path d="M10.767 25.3131V17.5257L8.95996 17.7254V15.5989C9.33269 15.5456 9.64552 15.4857 9.89844 15.4192C10.1514 15.3526 10.4176 15.2494 10.6971 15.1097C10.9767 14.9699 11.2163 14.7769 11.416 14.5306C11.6157 14.2843 11.7787 13.9815 11.9052 13.6221H14.1116V25.3131H10.767Z" fill="#DC143C"/>
</svg>
