<svg width="23" height="16" viewBox="0 0 23 16" fill="none" xmlns="http://www.w3.org/2000/svg">
<path d="M14.5 10C11.83 10 6.5 11.33 6.5 14V16H22.5V14C22.5 11.33 17.17 10 14.5 10ZM5.5 6V3H3.5V6H0.5V8H3.5V11H5.5V8H8.5V6M14.5 8C15.5609 8 16.5783 7.57857 17.3284 6.82843C18.0786 6.07828 18.5 5.06087 18.5 4C18.5 2.93913 18.0786 1.92172 17.3284 1.17157C16.5783 0.421427 15.5609 0 14.5 0C13.4391 0 12.4217 0.421427 11.6716 1.17157C10.9214 1.92172 10.5 2.93913 10.5 4C10.5 5.06087 10.9214 6.07828 11.6716 6.82843C12.4217 7.57857 13.4391 8 14.5 8Z" fill="white"/>
</svg>
