<svg width="33" height="32" viewBox="0 0 33 32" fill="none" xmlns="http://www.w3.org/2000/svg">
<path d="M6.33301 14C6.33301 8.47715 10.8102 4 16.333 4V4C21.8559 4 26.333 8.47715 26.333 14V28H6.33301V14Z" fill="#DC143C"/>
<path d="M9.33301 18C9.33301 14.134 12.467 11 16.333 11V11C20.199 11 23.333 14.134 23.333 18V28H9.33301V18Z" fill="#FFD700" fill-opacity="0.5"/>
<path d="M11.333 20C11.333 17.2386 13.5716 15 16.333 15V15C19.0944 15 21.333 17.2386 21.333 20V28H11.333V20Z" fill="white" fill-opacity="0.5"/>
<path fill-rule="evenodd" clip-rule="evenodd" d="M19.6825 7.14597C18.2965 6.53909 16.807 6.42102 15.8746 6.49872C15.5994 6.52165 15.3577 6.31716 15.3348 6.04197C15.3118 5.76678 15.5163 5.52511 15.7915 5.50218C16.8591 5.41321 18.5196 5.54514 20.0836 6.22993C21.6613 6.92075 23.1608 8.18617 23.8119 10.3568C23.8913 10.6213 23.7412 10.9 23.4767 10.9794C23.2122 11.0587 22.9335 10.9086 22.8541 10.6441C22.3053 8.81473 21.0547 7.74681 19.6825 7.14597Z" fill="white"/>
<path d="M0.333008 30C0.333008 28.8954 1.22844 28 2.33301 28H30.333C31.4376 28 32.333 28.8954 32.333 30V30C32.333 31.1046 31.4376 32 30.333 32H2.33301C1.22844 32 0.333008 31.1046 0.333008 30V30Z" fill="#FFD700"/>
<circle cx="2.33301" cy="22" r="1" fill="#DC143C"/>
<circle cx="3.33301" cy="15" r="1" fill="#DC143C"/>
<circle cx="4.33301" cy="8" r="1" fill="#DC143C"/>
<circle cx="9.33301" cy="3" r="1" fill="#DC143C"/>
<circle cx="30.333" cy="22" r="1" fill="#DC143C"/>
<circle cx="29.333" cy="15" r="1" fill="#DC143C"/>
<circle cx="28.333" cy="8" r="1" fill="#DC143C"/>
<circle cx="23.333" cy="3" r="1" fill="#DC143C"/>
<circle cx="16.333" cy="1" r="1" fill="#DC143C"/>
</svg>
