<svg width="14" height="15" viewBox="0 0 14 15" fill="none" xmlns="http://www.w3.org/2000/svg">
<path d="M7 13.1C3.913 13.1 1.4 10.587 1.4 7.5C1.4 4.413 3.913 1.9 7 1.9C10.087 1.9 12.6 4.413 12.6 7.5C12.6 10.587 10.087 13.1 7 13.1ZM7 0.5C6.08075 0.5 5.17049 0.68106 4.32122 1.03284C3.47194 1.38463 2.70026 1.90024 2.05025 2.55025C0.737498 3.86301 0 5.64348 0 7.5C0 9.35652 0.737498 11.137 2.05025 12.4497C2.70026 13.0998 3.47194 13.6154 4.32122 13.9672C5.17049 14.3189 6.08075 14.5 7 14.5H12.6C12.9713 14.5 13.3274 14.3525 13.5899 14.0899C13.8525 13.8274 14 13.4713 14 13.1V7.5C14 6.58075 13.8189 5.67049 13.4672 4.82122C13.1154 3.97194 12.5998 3.20026 11.9497 2.55025C11.2997 1.90024 10.5281 1.38463 9.67878 1.03284C8.82951 0.68106 7.91925 0.5 7 0.5ZM7.7 4H6.3V6.8H3.5V8.2H6.3V11H7.7V8.2H10.5V6.8H7.7V4Z" fill="#666666"/>
</svg>
